<?xml version="1.0" encoding="UTF-8" standalone="no" ?>
<!DOCTYPE svg PUBLIC "-//W3C//DTD SVG 1.1//EN" "http://www.w3.org/Graphics/SVG/1.1/DTD/svg11.dtd">
<svg xmlns="http://www.w3.org/2000/svg" xmlns:xlink="http://www.w3.org/1999/xlink" version="1.1" width="1280" height="1024" viewBox="0 0 1280 1024" xml:space="preserve">
<desc>Created with Fabric.js 5.3.0</desc>
<defs>
</defs>
<g transform="matrix(1 0 0 1 640 512)" id="background-logo"  >
<rect style="stroke: none; stroke-width: 0; stroke-dasharray: none; stroke-linecap: butt; stroke-dashoffset: 0; stroke-linejoin: miter; stroke-miterlimit: 4; fill: rgb(255,255,255); fill-opacity: 0; fill-rule: nonzero; opacity: 1;"  paint-order="stroke"  x="-640" y="-512" rx="0" ry="0" width="1280" height="1024" />
</g>
<g transform="matrix(3.2545656542893155 0 0 3.254565654289316 639.561842105263 511.24887218045114)" id="logo-logo"  >
<g style=""  paint-order="stroke"   >
		<g transform="matrix(0.8645265009051248 0 0 0.8645265009051248 0 0)"  >
<g style=""  paint-order="stroke"   >
		<g transform="matrix(1 0 0 1 -4.126232694743905 -1.9640149999999892)"  >
<linearGradient id="SVGID_485850" gradientUnits="userSpaceOnUse" gradientTransform="matrix(1 0 0 1 0 0.6157699999999977)"  x1="120.87376730525602" y1="0" x2="120.87376730525617" y2="244.07294000000002">
<stop offset="0%" style="stop-color:rgb(54,141,136);stop-opacity: 1"/>
<stop offset="100%" style="stop-color:rgb(74,97,125);stop-opacity: 1"/>
</linearGradient>
<path style="stroke: none; stroke-width: 1; stroke-dasharray: none; stroke-linecap: butt; stroke-dashoffset: 0; stroke-linejoin: miter; stroke-miterlimit: 4; fill: url(#SVGID_485850); fill-rule: nonzero; opacity: 1;"  paint-order="stroke"  transform=" translate(-120.8737673052561, -122.65224)" d="M 91.31533 244.63577 C 37.54981 229.63159 0 180.11998 0 124.23192 C 0 118.06722 0.46403 111.82373 1.37973 105.67432 L 3.24228 95.89134 C 3.05879 118.50815 10.92907 161.96113 33.41591 188.20664 C 48.803529999999995 206.16669 68.80203 216.05773 89.728 216.05773 C 101.52278 216.05773 112.86 212.7266 121.65244 206.67954 C 125.69166 203.90125 129.03042 200.66424 131.57582 197.06022000000002 L 131.81341 196.72263 L 132.22215 196.66265 C 140.56112 195.43113000000002 148.43785 193.288 155.63235 190.29565000000002 L 157.25087 189.62167000000002 L 156.95152 191.34956000000003 C 152.1401 219.12068000000002 126.52738 240.04725000000002 91.70056999999998 244.66282 L 91.50529999999999 244.68871000000001 C 91.50529 244.68871 91.31532 244.63577 91.31533 244.63577 z M 205.48567 217.45512 C 214.02815 193.56443 211.78564 170.14425 198.82107 147.84501 L 198.58347999999998 147.43685 L 198.76049999999998 146.9993 C 205.80267999999998 129.57324 206.60662999999997 109.66532000000001 200.85833999999997 95.04402 L 199.89675999999997 92.59861000000001 L 202.21160999999998 93.84308000000001 C 219.04130999999998 102.89369000000002 230.66199999999998 114.45851000000002 236.75025 128.21822000000003 C 244.07647 144.77385000000004 243.34426 163.68666000000002 234.57361 184.43207000000004 C 227.43381 197.37900000000005 218.1803 208.81207000000003 207.02539000000002 218.50669000000005 L 204.24651000000003 220.92269000000005 L 205.48569000000003 217.45513000000005 L 205.48567 217.45512 z M 75.53776 106.89981 C 61.509 96.93167 62.5256 84.77953 60.54538 74.99375 C 54.0531 42.91523000000001 62.770250000000004 18.217650000000006 63.78593 15.506990000000009 L 63.90945 15.176470000000009 L 64.21821 15.00415000000001 C 71.86144 10.73086000000001 79.99811 7.26917000000001 88.40119 4.714950000000011 L 89.62625 4.341490000000011 L 89.54626 6.061150000000011 C 87.35315 10.53970000000001 80.48329000000001 26.924770000000013 84.15965 49.72861000000001 L 84.23023 50.16852000000001 L 83.94086 50.50787000000001 C 69.88004 66.9853 66.37952 83.02573 72.92416 100.98873 L 75.53774 106.89979000000001 L 75.53776 106.89981 z M 98.17872 34.78976 C 94.25478 18.09298 96.7096 5.311320000000002 97.24185 2.91826 L 97.58407 2.55622 L 97.97171 2.18723 C 100.6553 1.58617 103.38831 1.07568 106.09485000000001 0.66987 L 106.45654 0.6157699999999999 L 106.76295 0.81456 C 107.84922 1.5209 113.29698 5.3878 113.83982 12.2006 C 114.40207000000001 19.26806 109.65593 27.04303 99.73372 35.30967 L 98.53572000000001 36.307719999999996 L 98.17872 34.78976 z" stroke-linecap="round" />
</g>
		<g transform="matrix(1 0 0 1 1.282413316067661 0)"  >
<linearGradient id="SVGID_485851" gradientUnits="userSpaceOnUse" gradientTransform="matrix(1 0 0 1 2.564826632135322 0)"  x1="123.71758668393232" y1="0" x2="123.71758668393235" y2="249.23251">
<stop offset="0%" style="stop-color:rgb(155,26,32);stop-opacity: 1"/>
<stop offset="100%" style="stop-color:rgb(202,150,157);stop-opacity: 1"/>
</linearGradient>
<path style="stroke: none; stroke-width: 1; stroke-dasharray: none; stroke-linecap: butt; stroke-dashoffset: 0; stroke-linejoin: miter; stroke-miterlimit: 4; fill: url(#SVGID_485851); fill-rule: nonzero; opacity: 1;"  paint-order="stroke"  transform=" translate(-126.28241331606766, -124.616255)" d="M 125.00001 249.23251 C 114.67142 249.23251 104.34342000000001 247.94804 94.30181 245.41559999999998 L 90.83308000000001 244.49936999999997 C 124.38896000000001 239.12158999999997 152.29475000000002 217.20339999999996 156.42865 190.15920999999997 C 160.07559 166.40848999999997 148.03909000000002 140.12061999999997 122.53696000000001 116.13699999999997 C 100.41298 95.32219999999997 87.27434000000001 73.11117999999996 83.48625000000001 50.12031999999998 C 79.23942000000001 24.312349999999977 88.38472000000002 6.612239999999979 89.44157000000001 4.679079999999978 L 89.62625000000001 4.341499999999978 L 90.18497 4.162119999999978 C 92.24692 3.5598799999999775 94.3618 3.0135199999999775 96.67431 2.4847899999999776 L 98.12814 2.151909999999978 L 97.83349 3.614569999999978 C 97.13481 7.082719999999978 95.16107 19.63676999999998 99.105 35.567819999999976 C 104.65687 58.071709999999975 119.11292 77.06981999999998 142.07259 92.03516999999998 C 168.79862 109.45474999999998 188.05313999999998 128.02291999999997 199.30274 147.22393 C 212.90249 170.45945 214.9656 194.86298 205.43332 219.75703 L 205.34981000000002 219.97464 L 205.06693 220.22754 C 182.6636 238.93217 154.22849 249.23251 125.00001 249.23251 L 125.00001 249.23251 z M 89.73505 216.78465 C 68.59206 216.78465 48.39655 206.80188 32.86778 188.67714 C 8.33663 160.04501 0.24878 121.71828 3.11587 96.4355 C 10.8238 62.598490000000005 32.50197 33.291790000000006 62.60969 15.925730000000001 L 64.81339 14.654790000000002 L 64.00471999999999 17.06668 C 61.89159999999999 23.37017 55.448139999999995 46.16577 61.25347999999999 74.85142 C 67.57932 106.10833000000001 88.75876 122.33697000000001 107.44515999999999 136.65657 C 118.54535999999999 145.16199 128.13177 152.50879999999998 133.16783999999998 161.80230999999998 C 142.38018 178.80138999999997 138.12454 196.22508999999997 122.06234999999998 207.27471999999997 C 113.14583999999998 213.40645999999998 101.66510999999998 216.78463999999997 89.73505999999998 216.78463999999997 L 89.73505 216.78465 z M 235.28943 182.69771 C 240.27376 166.14678 241.99277 141.85089 236.08977000000002 128.50994 C 227.98369000000002 110.19229 209.60018000000002 95.56335 182.92591000000002 86.20515 C 140.48998 71.31567 128.66813000000002 57.99412 122.70046000000002 46.926840000000006 C 115.05487000000002 32.747220000000006 118.57065000000001 20.975370000000005 121.34719000000003 15.220020000000005 C 125.14294000000002 7.350950000000005 132.10041000000004 1.2450600000000058 138.66091000000003 0.025890000000005742 L 138.80087 0 L 138.94319000000002 0.01588 C 202.25627 7.04688 250 60.44835 250 124.23193 C 250 141.52272 246.29955 159.03227 239.29794 174.86688 L 235.2894 182.69771 L 235.28943 182.69771 z" stroke-linecap="round" />
</g>
</g>
</g>
</g>
</g>
</svg>